<svg id="SvgjsSvg1027" width="288" height="288" xmlns="http://www.w3.org/2000/svg" version="1.1" xmlns:xlink="http://www.w3.org/1999/xlink" xmlns:svgjs="http://svgjs.com/svgjs"><defs id="SvgjsDefs1028"></defs><g id="SvgjsG1029" transform="matrix(1,0,0,1,0,0)"><svg xmlns="http://www.w3.org/2000/svg" width="288" height="288" viewBox="0 0 1792 1792"><path d="m 1379.7778,848.00004 14,245.77776 q 3.1111,53.6666 -63.7778,99.5555 -66.8889,45.8889 -182.7778,72.7223 -115.8889,26.8333 -251.2222,26.8333 -135.33333,0 -251.22222,-26.8333 Q 528.88889,1239.2222 462,1193.3333 q -66.88889,-45.8889 -63.77778,-99.5555 l 14,-245.77776 446.44445,140.77781 q 17.11111,5.4444 37.33333,5.4444 20.22222,0 37.33333,-5.4444 z m 412.2222,-252 q 0,17.88888 -17.1111,24.11111 L 903.77778,893.88893 q -3.11111,0.77781 -7.77778,0.77781 -4.66667,0 -7.77778,-0.77781 L 381.11111,733.6667 q -33.44444,26.44444 -55.22222,86.72222 -21.77778,60.27782 -26.44445,138.83331 49,28 49,84.77777 0,53.6667 -45.11111,83.2222 L 348.44444,1464 q 1.55556,10.8889 -6.22222,19.4444 -7,8.5556 -18.66666,8.5556 l -149.33334,0 q -11.66666,0 -18.66666,-8.5556 -7.77778,-8.5555 -6.22223,-19.4444 l 45.11111,-336.7778 Q 149.33333,1097.6667 149.33333,1044 q 0,-56.77777 50.55556,-86.33326 8.55555,-161.00004 76.22222,-256.6667 l -259,-80.88889 Q 0,613.88892 0,596.00004 0,578.11115 17.11111,571.88892 L 888.22222,298.11115 q 3.11111,-0.77778 7.77778,-0.77778 4.66667,0 7.77778,0.77778 L 1774.8889,571.88892 Q 1792,578.11115 1792,596.00004 Z" fill="#fbcd05" class="color000 svgShape"></path></svg></g></svg>